<?xml version="1.0" encoding="UTF-8" standalone="no"?>
<!-- Generator: Adobe Illustrator 19.0.0, SVG Export Plug-In . SVG Version: 6.00 Build 0)  -->

<svg
   version="1.1"
   id="Layer_1"
   x="0px"
   y="0px"
   viewBox="0 0 512.001 512.001"
   style="enable-background:new 0 0 512.001 512.001;"
   xml:space="preserve"
   sodipodi:docname="ticket-svgrepo-azul.svg"
   inkscape:version="1.1.1 (3bf5ae0d25, 2021-09-20)"
   xmlns:inkscape="http://www.inkscape.org/namespaces/inkscape"
   xmlns:sodipodi="http://sodipodi.sourceforge.net/DTD/sodipodi-0.dtd"
   xmlns="http://www.w3.org/2000/svg"
   xmlns:svg="http://www.w3.org/2000/svg"><defs
   id="defs77" /><sodipodi:namedview
   id="namedview75"
   pagecolor="#ffffff"
   bordercolor="#666666"
   borderopacity="1.0"
   inkscape:pageshadow="2"
   inkscape:pageopacity="0.0"
   inkscape:pagecheckerboard="0"
   showgrid="false"
   inkscape:zoom="1.1490463"
   inkscape:cx="246.2912"
   inkscape:cy="211.04458"
   inkscape:window-width="1920"
   inkscape:window-height="1017"
   inkscape:window-x="-8"
   inkscape:window-y="-8"
   inkscape:window-maximized="1"
   inkscape:current-layer="Layer_1" />
<path
   style="fill:#FFB547;"
   d="M365.845,32.947L339.263,6.365c-8.486-8.486-22.244-8.486-30.729,0L6.365,308.533  c-8.486,8.486-8.486,22.244,0,30.729l26.582,26.582c5.659,5.659,14.538,6.702,21.239,2.325  c25.116-16.401,59.117-13.575,81.171,8.479c22.054,22.054,24.88,56.055,8.479,81.171c-4.376,6.701-3.334,15.58,2.325,21.239  l26.577,26.577c8.485,8.486,22.244,8.486,30.729,0l302.169-302.169c8.486-8.486,8.486-22.244,0-30.729l-26.576-26.576  c-5.659-5.659-14.538-6.702-21.239-2.326c-25.116,16.402-59.117,13.575-81.171-8.479s-24.88-56.055-8.479-81.171  C372.547,47.485,371.505,38.606,365.845,32.947z"
   id="path2" />
<g
   id="g36">
	
		<rect
   x="150.609"
   y="183.363"
   transform="matrix(-0.7071 -0.7071 0.7071 -0.7071 130.6138 452.5364)"
   style="fill:#333E48;"
   width="16.842"
   height="31.708"
   id="rect4" />
	
		<rect
   x="111.831"
   y="222.152"
   transform="matrix(-0.7071 -0.7071 0.7071 -0.7071 36.9884 491.3325)"
   style="fill:#333E48;"
   width="16.842"
   height="31.708"
   id="rect6" />
	
		<rect
   x="189.403"
   y="144.57"
   transform="matrix(-0.7071 -0.7071 0.7071 -0.7071 224.2695 413.7439)"
   style="fill:#333E48;"
   width="16.842"
   height="31.708"
   id="rect8" />
	
		<rect
   x="228.181"
   y="105.777"
   transform="matrix(-0.7071 -0.7071 0.7071 -0.7071 317.8981 374.9402)"
   style="fill:#333E48;"
   width="16.842"
   height="31.708"
   id="rect10" />
	
		<rect
   x="266.984"
   y="66.997"
   transform="matrix(-0.7071 -0.7071 0.7071 -0.7071 411.5612 336.1764)"
   style="fill:#333E48;"
   width="16.842"
   height="31.708"
   id="rect12" />
	
		<rect
   x="305.763"
   y="28.203"
   transform="matrix(-0.7071 -0.7071 0.7071 -0.7071 505.1937 297.3711)"
   style="fill:#333E48;"
   width="16.842"
   height="31.708"
   id="rect14" />
	
		<rect
   x="73.038"
   y="260.943"
   transform="matrix(-0.7071 -0.7071 0.7071 -0.7071 -56.6657 530.1212)"
   style="fill:#333E48;"
   width="16.842"
   height="31.708"
   id="rect16" />
	
		<rect
   x="34.258"
   y="299.729"
   transform="matrix(-0.7071 -0.7071 0.7071 -0.7071 -150.2935 568.9114)"
   style="fill:#333E48;"
   width="16.842"
   height="31.708"
   id="rect18" />
	
		<rect
   x="304.397"
   y="337.118"
   transform="matrix(-0.7071 -0.7071 0.7071 -0.7071 284.4248 823.756)"
   style="fill:#333E48;"
   width="16.842"
   height="31.708"
   id="rect20" />
	
		<rect
   x="265.603"
   y="375.911"
   transform="matrix(-0.7071 -0.7071 0.7071 -0.7071 190.7691 862.5485)"
   style="fill:#333E48;"
   width="16.842"
   height="31.708"
   id="rect22" />
	
		<rect
   x="343.175"
   y="298.336"
   transform="matrix(-0.7071 -0.7071 0.7071 -0.7071 378.0455 784.9715)"
   style="fill:#333E48;"
   width="16.842"
   height="31.708"
   id="rect24" />
	
		<rect
   x="381.96"
   y="259.551"
   transform="matrix(-0.7071 -0.7071 0.7071 -0.7071 471.682 746.187)"
   style="fill:#333E48;"
   width="16.842"
   height="31.708"
   id="rect26" />
	
		<rect
   x="420.746"
   y="220.75"
   transform="matrix(-0.7071 -0.7071 0.7071 -0.7071 565.3298 707.3752)"
   style="fill:#333E48;"
   width="16.842"
   height="31.708"
   id="rect28" />
	
		<rect
   x="459.532"
   y="181.976"
   transform="matrix(-0.7071 -0.7071 0.7071 -0.7071 658.9584 668.6099)"
   style="fill:#333E48;"
   width="16.842"
   height="31.708"
   id="rect30" />
	
		<rect
   x="226.825"
   y="414.7"
   transform="matrix(-0.7071 -0.7071 0.7071 -0.7071 97.1429 901.3465)"
   style="fill:#333E48;"
   width="16.842"
   height="31.708"
   id="rect32" />
	
		<rect
   x="188.032"
   y="453.491"
   transform="matrix(-0.7071 -0.7071 0.7071 -0.7071 3.4887 940.1352)"
   style="fill:#333E48;"
   width="16.842"
   height="31.708"
   id="rect34" />
</g>
<path
   style="fill:#FFFFFF;"
   d="M208.437,342.363l-8.496,17.873c-1.409,2.965-5.357,3.59-7.614,1.206l-13.604-14.373  c-0.739-0.78-1.724-1.282-2.79-1.421l-19.623-2.557c-3.255-0.424-5.069-3.985-3.5-6.868l9.466-17.379  c0.514-0.944,0.687-2.036,0.49-3.092l-3.632-19.454c-0.603-3.227,2.223-6.053,5.45-5.45l19.454,3.632  c1.057,0.198,2.149,0.025,3.092-0.49l17.379-9.466c2.883-1.57,6.444,0.244,6.868,3.5l2.557,19.624  c0.139,1.066,0.641,2.051,1.421,2.79l14.373,13.604c2.385,2.257,1.759,6.204-1.206,7.614l-17.873,8.496  C209.681,340.611,208.899,341.392,208.437,342.363z"
   id="path38" />


<g
   id="g44">
</g>
<g
   id="g46">
</g>
<g
   id="g48">
</g>
<g
   id="g50">
</g>
<g
   id="g52">
</g>
<g
   id="g54">
</g>
<g
   id="g56">
</g>
<g
   id="g58">
</g>
<g
   id="g60">
</g>
<g
   id="g62">
</g>
<g
   id="g64">
</g>
<g
   id="g66">
</g>
<g
   id="g68">
</g>
<g
   id="g70">
</g>
<g
   id="g72">
</g>
<text
   xml:space="preserve"
   style="font-style:normal;font-variant:normal;font-weight:bold;font-stretch:normal;font-size:54.6587px;line-height:1.25;font-family:'Showcard Gothic';-inkscape-font-specification:'Showcard Gothic Bold';fill:#333e48;fill-opacity:1;stroke:none;stroke-width:2.56214"
   x="-10.797986"
   y="363.48907"
   id="text1687"
   transform="matrix(0.70128127,-0.71296717,0.69697587,0.71737135,0,0)"><tspan
     sodipodi:role="line"
     id="tspan1685"
     x="-10.797986"
     y="363.48907"
     style="font-style:normal;font-variant:normal;font-weight:bold;font-stretch:normal;font-size:54.6587px;font-family:'Showcard Gothic';-inkscape-font-specification:'Showcard Gothic Bold';fill:#333e48;fill-opacity:1;stroke-width:2.56214">MOVI</tspan></text><text
   xml:space="preserve"
   style="font-style:normal;font-variant:normal;font-weight:bold;font-stretch:normal;font-size:42.6667px;line-height:1.25;font-family:'Showcard Gothic';-inkscape-font-specification:'Showcard Gothic Bold';fill:#ffffff;fill-opacity:1;stroke:none;stroke-width:1.81978"
   x="2.846921"
   y="405.91135"
   id="text1687-1"
   transform="matrix(0.70184988,-0.71238955,0.69754099,0.71679016,0,0)"><tspan
     sodipodi:role="line"
     id="tspan1685-5"
     x="2.846921"
     y="405.91135"
     style="font-style:normal;font-variant:normal;font-weight:bold;font-stretch:normal;font-size:42.6667px;font-family:'Showcard Gothic';-inkscape-font-specification:'Showcard Gothic Bold';fill:#ffffff;stroke-width:1.81978">ZILLA</tspan></text></svg>
